<svg width="30" height="31" viewBox="0 0 30 31" fill="none" xmlns="http://www.w3.org/2000/svg">
  <path d="M11.25 4.25C9.86929 4.25 8.75 5.36929 8.75 6.75C8.75 8.13071 9.86929 9.25 11.25 9.25C12.6307 9.25 13.75 8.13071 13.75 6.75C13.75 5.36929 12.6307 4.25 11.25 4.25Z" fill="#908F8F"/>
  <path d="M18.75 4.25C17.3692 4.25 16.25 5.36929 16.25 6.75C16.25 8.13071 17.3692 9.25 18.75 9.25C20.1307 9.25 21.25 8.13071 21.25 6.75C21.25 5.36929 20.1307 4.25 18.75 4.25Z" fill="#908F8F"/>
  <path d="M11.25 13C9.86929 13 8.75 14.1192 8.75 15.5C8.75 16.8807 9.86929 18 11.25 18C12.6307 18 13.75 16.8807 13.75 15.5C13.75 14.1192 12.6307 13 11.25 13Z" fill="#908F8F"/>
  <path d="M18.75 13C17.3692 13 16.25 14.1192 16.25 15.5C16.25 16.8807 17.3692 18 18.75 18C20.1307 18 21.25 16.8807 21.25 15.5C21.25 14.1192 20.1307 13 18.75 13Z" fill="#908F8F"/>
  <path d="M11.25 21.75C9.86929 21.75 8.75 22.8692 8.75 24.25C8.75 25.6307 9.86929 26.75 11.25 26.75C12.6307 26.75 13.75 25.6307 13.75 24.25C13.75 22.8692 12.6307 21.75 11.25 21.75Z" fill="#908F8F"/>
  <path d="M18.75 21.75C17.3692 21.75 16.25 22.8692 16.25 24.25C16.25 25.6307 17.3692 26.75 18.75 26.75C20.1307 26.75 21.25 25.6307 21.25 24.25C21.25 22.8692 20.1307 21.75 18.75 21.75Z" fill="#908F8F"/>
</svg>