<svg width="38" height="38" viewBox="0 0 38 38" fill="none" xmlns="http://www.w3.org/2000/svg">
<rect x="0.5" y="0.5" width="37" height="37" rx="8.5" fill="white"/>
<rect x="0.5" y="0.5" width="37" height="37" rx="8.5" stroke="#DDDDDD"/>
<g clip-path="url(#clip0_1_446)">
<path fill-rule="evenodd" clip-rule="evenodd" d="M18.99 14.9073C20.4993 14.0354 21.3246 12.2469 20.8988 10.4648C20.3796 8.29221 18.1975 6.95183 16.0248 7.47101C13.8522 7.99018 12.5118 10.1723 13.031 12.3449C13.4568 14.127 15.0015 15.3492 16.742 15.4445L19.731 27.9526C15.457 28.6811 11.2885 26.1206 10.006 21.9789L12.2355 21.4462C12.8562 21.2978 13.2392 20.6744 13.0908 20.0536C12.9425 19.4328 12.319 19.0499 11.6983 19.1982L8.32639 20.004C7.70565 20.1523 7.32267 20.7758 7.47101 21.3965L7.6053 21.9585C9.01449 27.8556 14.9374 31.4938 20.8346 30.0846L21.9585 29.8161C27.8556 28.4069 31.4938 22.4839 30.0847 16.5868L29.9504 16.0248C29.802 15.4041 29.1786 15.0211 28.5578 15.1694L25.1859 15.9752C24.5651 16.1235 24.1822 16.747 24.3305 17.3678C24.4789 17.9885 25.1023 18.3715 25.7231 18.2231L27.9526 17.6904C28.6812 21.9645 26.1207 26.1329 21.9789 27.4154L18.99 14.9073ZM15.2789 11.8078C15.0564 10.8766 15.6309 9.94144 16.562 9.71894C17.4931 9.49644 18.4283 10.0709 18.6508 11.002C18.8733 11.9331 18.2989 12.8683 17.3678 13.0908C16.4367 13.3133 15.5014 12.7389 15.2789 11.8078Z" fill="#0079FF"/>
</g>
<defs>
<clipPath id="clip0_1_446">
<rect width="27.7347" height="27.7347" fill="white" transform="translate(2 8.44604) rotate(-13.4395)"/>
</clipPath>
</defs>
</svg>
