<svg width="15" height="15" viewBox="0 0 15 15" fill="none" xmlns="http://www.w3.org/2000/svg">
<g clip-path="url(#clip0_824_679)">
<path d="M6.8397 14.9929H8.16026C8.34688 14.9929 8.50477 14.9415 8.63392 14.8386C8.76312 14.7358 8.84685 14.5911 8.88512 14.4046L9.25839 12.8264C9.39714 12.7786 9.53349 12.7284 9.66745 12.6758C9.8014 12.6231 9.9282 12.5681 10.0478 12.5107L11.433 13.3573C11.5861 13.4529 11.7452 13.4936 11.9103 13.4792C12.0754 13.4649 12.2225 13.3931 12.3516 13.264L13.2775 12.3457C13.4067 12.2167 13.4797 12.066 13.4964 11.8938C13.5131 11.7217 13.4689 11.559 13.3636 11.406L12.5167 10.0359C12.5789 9.91153 12.6351 9.78479 12.6853 9.65565C12.7356 9.52656 12.7823 9.39745 12.8254 9.26831L14.4186 8.88809C14.6004 8.84985 14.7428 8.76615 14.8457 8.63702C14.9486 8.50788 15 8.35006 15 8.16358V6.86514C15 6.68341 14.9486 6.52798 14.8457 6.39886C14.7428 6.26974 14.6004 6.18604 14.4186 6.14778L12.8397 5.76758C12.7918 5.61933 12.7404 5.48064 12.6853 5.35151C12.6303 5.22239 12.5789 5.10043 12.5311 4.98566L13.3779 3.59398C13.4784 3.44094 13.5227 3.28193 13.5107 3.11693C13.4988 2.95194 13.4258 2.80488 13.2918 2.67576L12.3516 1.75036C12.2177 1.6308 12.0741 1.56026 11.921 1.53874C11.7679 1.51722 11.6124 1.55189 11.4545 1.64276L10.0478 2.51076C9.933 2.44859 9.80978 2.3912 9.67817 2.33859C9.54662 2.28599 9.40669 2.23577 9.25839 2.18795L8.88512 0.588236C8.84685 0.406505 8.76312 0.263033 8.63392 0.15782C8.50477 0.0526065 8.34688 0 8.16026 0H6.8397C6.65309 0 6.4952 0.0526065 6.36602 0.15782C6.23683 0.263033 6.15071 0.406505 6.10764 0.588236L5.73443 2.1736C5.59568 2.22143 5.45812 2.27284 5.32176 2.32784C5.1854 2.38283 5.0574 2.44142 4.93779 2.50359L3.54545 1.64276C3.38755 1.55189 3.23085 1.51602 3.07535 1.53515C2.91985 1.55428 2.77511 1.62602 2.64114 1.75036L1.70813 2.67576C1.57416 2.80488 1.5 2.95194 1.48564 3.11693C1.47129 3.28193 1.51674 3.44094 1.62201 3.59398L2.46172 4.98566C2.41387 5.10043 2.36243 5.22239 2.30741 5.35151C2.25239 5.48064 2.20334 5.61933 2.16028 5.76758L0.581339 6.14778C0.394736 6.18604 0.251195 6.26974 0.150717 6.39886C0.0502391 6.52798 0 6.68341 0 6.86514V8.16358C0 8.35006 0.0502391 8.50788 0.150717 8.63702C0.251195 8.76615 0.394736 8.84985 0.581339 8.88809L2.17463 9.26831C2.21291 9.39745 2.25837 9.52656 2.311 9.65565C2.36363 9.78479 2.41865 9.91153 2.47607 10.0359L1.63636 11.406C1.5311 11.559 1.48684 11.7217 1.50359 11.8938C1.52033 12.066 1.5933 12.2167 1.72248 12.3457L2.64114 13.264C2.77033 13.3931 2.91746 13.4649 3.08253 13.4792C3.2476 13.4936 3.40908 13.4529 3.56698 13.3573L4.94497 12.5107C5.06459 12.5681 5.19138 12.6231 5.32534 12.6758C5.45932 12.7284 5.59568 12.7786 5.73443 12.8264L6.10764 14.4046C6.15071 14.5911 6.23683 14.7358 6.36602 14.8386C6.4952 14.9415 6.65309 14.9929 6.8397 14.9929ZM7.5 10.0287C7.03587 10.0287 6.61123 9.91391 6.22606 9.68438C5.8409 9.4548 5.53468 9.14752 5.3074 8.76256C5.08013 8.37759 4.96649 7.95315 4.96649 7.48924C4.96649 7.02535 5.08133 6.60331 5.31099 6.2231C5.54066 5.8429 5.84688 5.53802 6.22965 5.30847C6.61242 5.07891 7.03587 4.96414 7.5 4.96414C7.96408 4.96414 8.38872 5.07891 8.77392 5.30847C9.15907 5.53802 9.46529 5.8429 9.69258 6.2231C9.91982 6.60331 10.0334 7.02535 10.0334 7.48924C10.0334 7.95315 9.91982 8.37759 9.69258 8.76256C9.46529 9.14752 9.15907 9.4548 8.77392 9.68438C8.38872 9.91391 7.96408 10.0287 7.5 10.0287Z" fill="#232323"/>
</g>
<defs>
<clipPath id="clip0_824_679">
<rect width="15" height="15" fill="white"/>
</clipPath>
</defs>
</svg>
